<?xml version="1.0" encoding="UTF-8"?>
<svg version="1.1" xmlns="http://www.w3.org/2000/svg" width="1024" height="1024">
<path d="M0 0 C337.92 0 675.84 0 1024 0 C1024 337.92 1024 675.84 1024 1024 C686.08 1024 348.16 1024 0 1024 C0 686.08 0 348.16 0 0 Z " fill="#FDFDFD" transform="translate(0,0)"/>
<path d="M0 0 C1.37221357 -0.00043653 2.74442705 -0.00131296 4.11664009 -0.00258917 C7.87249697 -0.00481797 11.62832517 -0.000835 15.3841784 0.0041889 C19.43997205 0.00851644 23.49576414 0.00704534 27.55155945 0.00628662 C34.57358176 0.00576285 41.59559477 0.00889435 48.61761475 0.01452446 C58.77021604 0.02265929 68.92281284 0.02525672 79.07541704 0.02651245 C95.54824607 0.02869985 112.02107015 0.03535149 128.49389648 0.04481506 C144.49357071 0.05399724 160.49324359 0.06107414 176.49291992 0.06532288 C177.47951367 0.0655856 178.46610742 0.06584832 179.48259795 0.06611901 C184.43216045 0.06742407 189.38172296 0.06868777 194.33128548 0.06993091 C235.37816838 0.08029381 276.42504582 0.09790365 317.47192383 0.12025452 C317.48995693 1.86997214 317.50278034 3.61974394 317.51342773 5.36952209 C317.52498398 6.83111504 317.52498398 6.83111504 317.53677368 8.32223511 C316.89121822 36.17544719 297.63030839 65.28484797 279.55004883 84.85072327 C277.64262225 86.93383387 275.83920727 89.07361089 274.03442383 91.24525452 C253.903026 114.23282321 217.82489163 131.6183008 187.47192383 134.12025452 C184.40952291 134.24814028 181.35275431 134.26235662 178.28796387 134.25828552 C176.96900863 134.26251744 176.96900863 134.26251744 175.62340784 134.26683486 C172.70115922 134.27511328 169.7789488 134.27651324 166.85668945 134.27796936 C164.75176386 134.2826424 162.64683928 134.28778677 160.54191589 134.29336548 C156.02071732 134.30461112 151.49952521 134.31306211 146.97831726 134.31948471 C139.8256487 134.33019789 132.67302687 134.35044996 125.52038574 134.37260437 C105.18508029 134.43442242 84.8497784 134.48856523 64.5144043 134.5216217 C53.27448131 134.53997265 42.03463744 134.5689095 30.79477262 134.60962641 C24.85167177 134.63067809 18.9086705 134.64615121 12.9655304 134.64843369 C7.37745087 134.65058261 1.78957911 134.66647714 -3.79843712 134.69282341 C-5.84582562 134.70000688 -7.89323931 134.70212201 -9.94063759 134.69872093 C-12.74204148 134.69481144 -15.54278657 134.70932825 -18.34411621 134.72825623 C-19.55041506 134.71996168 -19.55041506 134.71996168 -20.78108358 134.71149957 C-29.43618776 134.8119985 -36.52706627 137.14922102 -42.79760742 143.19447327 C-48.66682122 149.72612655 -49.16123899 155.77816059 -48.91870117 164.48353577 C-48.17846969 171.37509086 -45.45142314 177.19690755 -40.52807617 182.12025452 C-33.39827011 187.268725 -27.58929243 189.42125268 -18.72038269 189.37854004 C-17.38946113 189.3840536 -17.38946113 189.3840536 -16.03165227 189.38967854 C-13.05798966 189.39965956 -10.08451403 189.39550737 -7.11083984 189.39149475 C-4.97845257 189.39588202 -2.84606701 189.40118418 -0.71368408 189.40733337 C3.88070028 189.41883902 8.47503849 189.42429325 13.06943703 189.42521477 C20.34554352 189.42715643 27.62155488 189.44521774 34.89762878 189.4659729 C52.97994372 189.51515979 71.06228466 189.5459856 89.14465332 189.567276 C103.18036152 189.58383181 117.21598848 189.60675698 131.25164241 189.65029675 C138.47193761 189.67198487 145.6920782 189.68013903 152.9124037 189.67790401 C157.42556475 189.67958133 161.93862659 189.69369547 166.45175171 189.71111679 C168.53006449 189.71667467 170.60839821 189.71724039 172.68671227 189.71217918 C187.57623052 189.67974878 201.89826028 190.56316044 216.03442383 195.74525452 C216.73365967 195.99976379 217.43289551 196.25427307 218.15332031 196.51649475 C248.03808564 207.93796146 269.99248807 233.40099061 283.22192383 261.80775452 C283.98470467 263.57312022 284.7352886 265.3438201 285.47192383 267.12025452 C285.81868164 267.91947327 286.16543945 268.71869202 286.52270508 269.54212952 C299.75819251 302.45199015 296.56346047 342.72538069 283.47192383 375.12025452 C276.93680925 390.18072311 268.22204986 403.72202554 257.47192383 416.12025452 C256.75262695 416.97361389 256.03333008 417.82697327 255.29223633 418.70619202 C249.90136091 424.94119027 243.98505921 430.08693465 237.47192383 435.12025452 C236.80547852 435.65263733 236.1390332 436.18502014 235.45239258 436.73353577 C219.0650876 449.53288345 200.37159844 457.61645241 180.47192383 463.12025452 C179.43742308 463.41158115 179.43742308 463.41158115 178.38202333 463.70879316 C161.80605909 468.18545828 144.89992845 467.66989079 127.88422108 467.584517 C123.50552876 467.56704251 119.12685586 467.57310265 114.74813843 467.5761261 C107.18442826 467.57821098 99.62085744 467.5657931 92.05718231 467.54317474 C81.12176042 467.51049505 70.18640506 467.5002315 59.25093964 467.49522278 C41.50359942 467.486495 23.75633327 467.45994819 6.0090332 467.42201233 C-11.2181766 467.38522677 -28.4453662 467.35694714 -45.67260742 467.33998108 C-47.26874234 467.33840474 -47.26874234 467.33840474 -48.89712241 467.33679655 C-54.23600711 467.33157593 -59.57489194 467.32652121 -64.91377687 467.32154894 C-109.11859456 467.28016541 -153.32333152 467.20978609 -197.52807617 467.12025452 C-197.54513213 464.88354615 -197.557289 462.64680006 -197.56738281 460.41004944 C-197.57467911 459.16446762 -197.5819754 457.9188858 -197.5894928 456.63555908 C-197.51545259 452.39771809 -196.97401095 448.53530682 -195.96557617 444.43275452 C-195.78921631 443.68711243 -195.61285645 442.94147034 -195.43115234 442.17323303 C-188.94098233 416.09019956 -176.06182584 393.49491841 -157.52807617 374.12025452 C-156.86936523 373.39837952 -156.2106543 372.67650452 -155.53198242 371.93275452 C-133.34972743 348.45059422 -98.79137109 331.413261 -66.33057225 330.02636564 C-63.92745914 329.99063514 -61.52607111 329.98395721 -59.12269592 329.98895264 C-57.74989437 329.98577907 -57.74989437 329.98577907 -56.34935945 329.98254138 C-53.29962585 329.97657637 -50.24993402 329.97753902 -47.20019531 329.97840881 C-45.00674876 329.97537506 -42.81330284 329.97185301 -40.61985779 329.96788025 C-35.90438327 329.96000863 -31.18891626 329.95485294 -26.47343636 329.95158958 C-19.01420414 329.94566657 -11.5550193 329.9291149 -4.09580994 329.9102478 C-1.53966239 329.903911 1.01648519 329.89758537 3.57263279 329.89127064 C4.85245852 329.88810483 6.13228424 329.88493901 7.45089257 329.88167727 C14.0619857 329.86566465 20.67308135 329.85097997 27.28417969 329.83729553 C28.27869904 329.83523172 28.27869904 329.83523172 29.2933097 329.83312622 C40.04055229 329.81118979 50.7877831 329.80043702 61.53504413 329.79292478 C72.5857857 329.78484472 83.6364235 329.76126513 94.6871081 329.72497112 C100.88511595 329.70521603 107.08294734 329.69280433 113.28098869 329.6978054 C119.10958603 329.70245156 124.93784855 329.68864771 130.7663784 329.6607933 C132.90245718 329.65388221 135.03857059 329.65375406 137.17464828 329.66099358 C140.09668228 329.66989512 143.01761512 329.65416686 145.93955994 329.63250732 C146.77945982 329.64094986 147.61935971 329.6493924 148.48471111 329.65809077 C155.67708429 329.55988946 161.14761044 327.1601741 167.22192383 323.43275452 C172.83372642 317.66506852 175.50346207 310.85548352 175.78442383 302.87025452 C175.6566567 295.16589684 172.00382726 288.49427162 166.68198776 283.03363609 C156.75674923 274.44077674 144.09603871 275.42055047 131.81079102 275.50843811 C129.73648094 275.50489187 127.66217367 275.49910846 125.58787537 275.49127197 C121.14027683 275.47914032 116.69306269 275.48250499 112.24547577 275.4981041 C105.19977629 275.52253365 98.15440943 275.51087879 91.10870361 275.49443054 C78.68637417 275.46998119 66.26419746 275.47571791 53.84185791 275.48823547 C35.15899325 275.50683291 16.47615859 275.50183798 -2.20668483 275.46820128 C-9.19704972 275.45674879 -16.18716934 275.46104273 -23.17752028 275.47822165 C-27.54315946 275.48617226 -31.90872873 275.4818348 -36.27436638 275.4745121 C-38.28335737 275.47370835 -40.29235851 275.47796917 -42.30132484 275.48795509 C-57.6873839 275.56067145 -72.22059565 274.56906972 -86.59057617 268.49525452 C-87.42709717 268.1497052 -88.26361816 267.80415588 -89.12548828 267.44813538 C-119.8583251 254.36153575 -141.7889926 230.07863627 -155.52807617 200.12025452 C-155.93670898 199.28752014 -156.3453418 198.45478577 -156.76635742 197.59681702 C-169.27206798 170.07459688 -166.88468776 133.00154653 -156.67260742 105.36244202 C-150.94288889 90.86818489 -143.22166278 77.31481602 -133.52807617 65.12025452 C-133.08463867 64.55870667 -132.64120117 63.99715881 -132.18432617 63.41859436 C-126.2105741 55.92806931 -119.8707619 49.30591098 -112.52807617 43.12025452 C-111.61541992 42.32103577 -110.70276367 41.52181702 -109.76245117 40.69837952 C-84.60182583 19.03602294 -54.22741671 6.06303249 -21.52807617 1.12025452 C-19.88770134 0.86454854 -19.88770134 0.86454854 -18.21418762 0.6036768 C-12.16029901 -0.14078993 -6.09020387 -0.01402798 0 0 Z " fill="#1C1C1C" transform="translate(449.528076171875,275.87974548339844)"/>
</svg>
